# xmcd CD database file
# Copyright (C) 1996 Ti Kan
#
# Track frame offsets:
#	150
#	21125
#	40164
#	55994
#	67383
#	84386
#	101055
#	120268
#	129882
#	144795
#	167859
#	185371
# Disc length: 2695 seconds
#
# Revision: 1
# Processed by: cddbd v1.5.2PL0 Copyright (c) Steve Scherf et al.
# Submitted via: CDCOPY 4.900
#
DISCID=9c0a850c
DTITLE=MercyMe - The Christmas Sessions
DYEAR=1900
DGENRE=
TTITLE0=It Came Upon The Midnight Clear
TTITLE1=Gloria
TTITLE2=God Rest Ye Merry Gentlemen
TTITLE3=Rockin' Around The Christmas Tree
TTITLE4=Winter Wonderland/White Christmas
TTITLE5=Christmas Time Is Here
TTITLE6=Silent Night
TTITLE7=Away
TTITLE8=Drummer Boy
TTITLE9=I Heard The Bells
TTITLE10=O Holy Night
TTITLE11=Joseph's Lullaby
EXTD=
EXTT0=
EXTT1=
EXTT2=
EXTT3=
EXTT4=
EXTT5=
EXTT6=
EXTT7=
EXTT8=
EXTT9=
EXTT10=
EXTT11=
PLAYORDER=
